<svg width="140" height="40" viewBox="0 0 140 40" fill="none" xmlns="http://www.w3.org/2000/svg">
  <g transform="translate(0, 3)">
    <path d="M0 3H10L17 22L24 3H34L20 32H14L0 3Z" fill="#000000"/>
    <path d="M38 3V23C38 25.5 39 27.5 41 29C43 30.5 45.5 31.2 48.5 31.2C51.5 31.2 54 30.5 56 29C58 27.5 59 25.5 59 23V3H52V22.5C52 23.8 51.5 24.8 50.5 25.5C49.5 26.2 48.2 26.5 46.5 26.5C44.8 26.5 43.5 26.2 42.5 25.5C41.5 24.8 41 23.8 41 22.5V3H38Z" fill="#FACC15"/>
    <path d="M66 32V3H81C84.5 3 87.2 3.8 89 5.5C90.8 7.2 91.7 9.4 91.7 12.2C91.7 14.4 91.1 16.2 89.9 17.7C88.7 19.2 87 20.2 84.8 20.8L93 32H85L77.5 21.5H73V32H66ZM73 16.5H80C81.5 16.5 82.7 16.1 83.5 15.3C84.3 14.5 84.7 13.5 84.7 12.2C84.7 10.9 84.3 9.9 83.5 9.1C82.7 8.3 81.5 8 80 8H73V16.5Z" fill="#FACC15"/>
    <path d="M98 17C98 13.5 99 10.5 101 8C103 5.5 105.8 3.8 109.5 3C110.8 2.7 112.2 2.5 113.8 2.5C115.4 2.5 116.8 2.7 118.1 3C121.8 3.8 124.6 5.5 126.6 8C128.6 10.5 129.6 13.5 129.6 17C129.6 20.5 128.6 23.5 126.6 26C124.6 28.5 121.8 30.2 118.1 31C116.8 31.3 115.4 31.5 113.8 31.5C112.2 31.5 110.8 31.3 109.5 31C105.8 30.2 103 28.5 101 26C99 23.5 98 20.5 98 17ZM105 17C105 19.3 105.8 21.3 107.3 22.8C108.8 24.3 110.8 25.3 113.3 25.8C113.8 25.9 114.3 26 114.8 26C115.3 26 115.8 25.9 116.3 25.8C118.8 25.3 120.8 24.3 122.3 22.8C123.8 21.3 124.5 19.3 124.5 17C124.5 14.7 123.8 12.7 122.3 11.2C120.8 9.7 118.8 8.7 116.3 8.2C115.8 8.1 115.3 8 114.8 8C114.3 8 113.8 8.1 113.3 8.2C110.8 8.7 108.8 9.7 107.3 11.2C105.8 12.7 105 14.7 105 17Z" fill="#FACC15"/>
  </g>
</svg>